<svg width="36" height="36" viewBox="0 0 36 36" fill="none" xmlns="http://www.w3.org/2000/svg">
<path d="M18 0.5625C8.37021 0.5625 0.5625 8.37302 0.5625 18C0.5625 27.6326 8.37021 35.4375 18 35.4375C27.6298 35.4375 35.4375 27.6326 35.4375 18C35.4375 8.37302 27.6298 0.5625 18 0.5625ZM18 32.0625C10.2282 32.0625 3.9375 25.7744 3.9375 18C3.9375 10.2308 10.2285 3.9375 18 3.9375C25.7689 3.9375 32.0625 10.2284 32.0625 18C32.0625 25.7716 25.7744 32.0625 18 32.0625ZM25.5406 14.1188C25.5406 18.8333 20.4485 18.9059 20.4485 20.6482V21.0938C20.4485 21.5597 20.0707 21.9375 19.6047 21.9375H16.3952C15.9292 21.9375 15.5514 21.5597 15.5514 21.0938V20.4849C15.5514 17.9716 17.4569 16.9669 18.8968 16.1596C20.1316 15.4673 20.8884 14.9965 20.8884 14.0798C20.8884 12.8672 19.3416 12.0623 18.0911 12.0623C16.4606 12.0623 15.7079 12.8341 14.6498 14.1695C14.3646 14.5295 13.844 14.5964 13.478 14.3189L11.5216 12.8354C11.1625 12.5632 11.0821 12.0573 11.3357 11.6849C12.997 9.24546 15.113 7.875 18.4074 7.875C21.8577 7.875 25.5406 10.5683 25.5406 14.1188ZM20.9531 25.875C20.9531 27.5034 19.6284 28.8281 18 28.8281C16.3716 28.8281 15.0469 27.5034 15.0469 25.875C15.0469 24.2466 16.3716 22.9219 18 22.9219C19.6284 22.9219 20.9531 24.2466 20.9531 25.875Z" fill="#777777"/>
</svg>
