<svg width="27" height="28" viewBox="0 0 27 28" fill="none" xmlns="http://www.w3.org/2000/svg">
<path d="M8.685 18.8931L10.6661 18.334L22.5945 6.52521C22.6886 6.43089 22.741 6.30415 22.7403 6.17236C22.7397 6.04057 22.6861 5.91432 22.5911 5.82086L21.8767 5.11431C21.8306 5.06791 21.7754 5.03097 21.7145 5.00564C21.6536 4.98032 21.5881 4.96711 21.522 4.96681C21.4558 4.9665 21.3902 4.97909 21.329 5.00385C21.2679 5.02861 21.2124 5.06504 21.1657 5.11101L9.26888 16.889L8.68387 18.892L8.685 18.8931ZM23.2909 3.71442L24.0052 4.42207C24.9907 5.39825 24.9998 6.97313 24.0233 7.93941L11.7315 20.1092L7.497 21.3022C7.23847 21.373 6.96179 21.3406 6.72768 21.212C6.49357 21.0835 6.32115 20.8693 6.24825 20.6166C6.194 20.4348 6.19323 20.2418 6.246 20.0597L7.47787 15.8336L19.737 3.69571C19.9701 3.46609 20.2476 3.28418 20.5533 3.16058C20.8591 3.03697 21.1869 2.97416 21.5177 2.9758C21.8485 2.97744 22.1757 3.0435 22.4801 3.17012C22.7845 3.29675 23.0602 3.4814 23.2909 3.71332V3.71442ZM10.332 4.98335C10.89 4.98335 11.3422 5.43127 11.3422 5.98374C11.3431 6.11434 11.3177 6.24383 11.2674 6.36481C11.2171 6.48578 11.1429 6.59588 11.0491 6.68879C10.9553 6.7817 10.8436 6.8556 10.7206 6.90628C10.5976 6.95696 10.4655 6.98342 10.332 6.98414H6.291C5.175 6.98414 4.2705 7.87998 4.2705 8.98382V20.9864C4.2705 22.0913 5.175 22.9871 6.291 22.9871H18.414C19.53 22.9871 20.4356 22.0913 20.4356 20.9864V16.9859C20.4356 16.4334 20.8879 15.9855 21.4459 15.9855C22.0039 15.9855 22.4561 16.4334 22.4561 16.987V20.9864C22.4561 23.1962 20.646 24.9879 18.414 24.9879H6.291C4.059 24.9879 2.25 23.1962 2.25 20.9864V8.98382C2.25 6.77503 4.059 4.98335 6.291 4.98335H10.332V4.98335Z" fill="black"/>
</svg>
