<svg width="36" height="36" viewBox="0 0 36 36" fill="none" xmlns="http://www.w3.org/2000/svg">
<path d="M22.131 15C23.58 15 24.756 16.176 24.756 17.625V24.7485C24.756 26.5391 24.0447 28.2564 22.7785 29.5225C21.5124 30.7887 19.7951 31.5 18.0045 31.5C16.2139 31.5 14.4966 30.7887 13.2305 29.5225C11.9643 28.2564 11.253 26.5391 11.253 24.7485V17.625C11.253 16.176 12.4275 15 13.878 15H22.131ZM10.6965 15C10.1715 15.633 9.834 16.425 9.7665 17.295L9.7515 17.625V24.7485C9.7515 26.019 10.0395 27.222 10.5525 28.296C9.66342 28.5338 8.73155 28.564 7.82894 28.3842C6.92633 28.2044 6.07717 27.8194 5.34712 27.259C4.61707 26.6986 4.02568 25.9778 3.61869 25.1523C3.21171 24.3269 3.00002 23.4188 3 22.4985V17.625C3.00002 16.9662 3.24776 16.3315 3.69402 15.8469C4.14028 15.3623 4.75245 15.0632 5.409 15.009L5.625 15H10.6965ZM25.3125 15H30.375C31.824 15 33 16.176 33 17.625V22.5C33.0002 23.4197 32.789 24.3272 32.3826 25.1523C31.9762 25.9774 31.3856 26.6981 30.6563 27.2586C29.9271 27.819 29.0788 28.2044 28.1769 28.3848C27.275 28.5652 26.3437 28.5358 25.455 28.299C25.905 27.357 26.181 26.319 26.2425 25.221L26.256 24.7485V17.625C26.256 16.6275 25.902 15.7125 25.311 15H25.3125ZM18 4.5C19.1935 4.5 20.3381 4.97411 21.182 5.81802C22.0259 6.66193 22.5 7.80653 22.5 9C22.5 10.1935 22.0259 11.3381 21.182 12.182C20.3381 13.0259 19.1935 13.5 18 13.5C16.8065 13.5 15.6619 13.0259 14.818 12.182C13.9741 11.3381 13.5 10.1935 13.5 9C13.5 7.80653 13.9741 6.66193 14.818 5.81802C15.6619 4.97411 16.8065 4.5 18 4.5ZM27.75 6C28.7446 6 29.6984 6.39509 30.4016 7.09835C31.1049 7.80161 31.5 8.75544 31.5 9.75C31.5 10.7446 31.1049 11.6984 30.4016 12.4017C29.6984 13.1049 28.7446 13.5 27.75 13.5C26.7554 13.5 25.8016 13.1049 25.0984 12.4017C24.3951 11.6984 24 10.7446 24 9.75C24 8.75544 24.3951 7.80161 25.0984 7.09835C25.8016 6.39509 26.7554 6 27.75 6ZM8.25 6C9.24456 6 10.1984 6.39509 10.9017 7.09835C11.6049 7.80161 12 8.75544 12 9.75C12 10.7446 11.6049 11.6984 10.9017 12.4017C10.1984 13.1049 9.24456 13.5 8.25 13.5C7.25544 13.5 6.30161 13.1049 5.59835 12.4017C4.89509 11.6984 4.5 10.7446 4.5 9.75C4.5 8.75544 4.89509 7.80161 5.59835 7.09835C6.30161 6.39509 7.25544 6 8.25 6Z" fill="black"/>
</svg>
