<svg width="27" height="27" viewBox="0 0 27 27" fill="none" xmlns="http://www.w3.org/2000/svg">
<path d="M7.875 16.4402L14.6925 9.77167L17.01 12.0385L10.1925 18.7071H7.875V16.4402ZM13.5 22.0083C15.8869 22.0083 18.1761 21.0808 19.864 19.4299C21.5518 17.7789 22.5 15.5398 22.5 13.205C22.5 10.8702 21.5518 8.63102 19.864 6.98008C18.1761 5.32913 15.8869 4.40164 13.5 4.40164C11.1131 4.40164 8.82387 5.32913 7.13604 6.98008C5.44821 8.63102 4.5 10.8702 4.5 13.205C4.5 15.5398 5.44821 17.7789 7.13604 19.4299C8.82387 21.0808 11.1131 22.0083 13.5 22.0083ZM18.7875 10.2889L17.6625 11.3893L15.3562 9.13343L16.4812 8.03301C16.7175 7.79092 17.1113 7.79092 17.3475 8.03301L18.7875 9.44155C19.035 9.67263 19.035 10.0578 18.7875 10.2889ZM13.5 2.20081C14.9774 2.20081 16.4403 2.48544 17.8052 3.03845C19.1701 3.59146 20.4103 4.40202 21.455 5.42385C22.4996 6.44568 23.3283 7.65877 23.8936 8.99386C24.459 10.3289 24.75 11.7599 24.75 13.205C24.75 16.1235 23.5647 18.9224 21.455 20.9861C19.3452 23.0498 16.4837 24.2091 13.5 24.2091C12.0226 24.2091 10.5597 23.9245 9.19481 23.3715C7.8299 22.8185 6.58971 22.0079 5.54505 20.9861C3.43526 18.9224 2.25 16.1235 2.25 13.205C2.25 10.2865 3.43526 7.48753 5.54505 5.42385C7.65483 3.36017 10.5163 2.20081 13.5 2.20081" fill="black"/>
</svg>
