<svg width="27" height="27" viewBox="0 0 27 27" fill="none" xmlns="http://www.w3.org/2000/svg">
<path d="M13.5 2.20081C7.27875 2.20081 2.25 7.11967 2.25 13.205C2.25 19.2903 7.27875 24.2091 13.5 24.2091C19.7213 24.2091 24.75 19.2903 24.75 13.205C24.75 7.11967 19.7213 2.20081 13.5 2.20081ZM16.9875 7.77992C17.145 7.77992 17.3025 7.83494 17.4375 7.95599L18.8663 9.35351C19.125 9.59561 19.125 9.98075 18.8663 10.2118L17.7413 11.3123L15.435 9.0564L16.56 7.95599C16.6725 7.83494 16.83 7.77992 16.9875 7.77992ZM14.7713 9.69464L17.0887 11.9615L10.2713 18.63H7.95375V16.3632L14.7713 9.69464V9.69464Z" fill="black"/>
</svg>
